<svg width="42" height="40" viewBox="0 0 42 40" fill="none" xmlns="http://www.w3.org/2000/svg">
<path d="M0.0121912 11.5808C0.0799066 11.0298 0.447662 10.2631 1.55667 9.62936C3.0743 8.76214 7.56395 6.489 9.71401 5.41315C9.77926 5.3805 9.84555 5.35585 9.91664 5.3394C10.8935 5.1133 13.0664 4.83485 14.7627 5.36493C16.3816 6.03949 21.3614 9.06925 28.508 15.8297C28.7382 16.0475 29.0839 16.0559 29.3084 15.8323C29.6645 15.4776 29.6842 14.532 29.2752 14.24C26.4876 12.2503 22.1896 7.93025 20.2677 1.57196C20.0521 0.858604 20.7015 0.224757 21.4042 0.472994C25.6963 1.9893 32.6114 6.00597 35.3177 13.4034C35.4558 13.7808 35.7971 14.0462 36.1868 14.1444C37.9098 14.5783 40.5535 16.2415 41.0371 20.4968L41.8673 24.1737C41.9489 24.5351 41.824 24.9121 41.5427 25.1532L40.4287 26.1081C40.204 26.3007 39.9068 26.3831 39.614 26.34C37.5478 26.0359 33.8691 25.734 32.6458 26.5495C31.4532 27.3445 29.7223 28.6481 28.79 29.3661C28.6138 29.5018 28.3982 29.5759 28.1758 29.5759H27.3778C26.984 29.5759 26.6257 29.3461 26.4739 28.9827C23.6225 22.1574 22.0931 10.8101 13.1322 12.9261C14.4743 12.6135 17.6906 12.9783 19.99 16.9202C22.1975 20.7045 25.3339 29.8942 26.8093 34.5864C26.9299 34.9699 27.2646 35.2398 27.6629 35.2932C30.157 35.6274 33.9 36.5762 34.3311 38.3719C34.4449 38.8456 33.9431 39.1605 33.4598 39.0993L23.8255 37.8798C23.571 37.8476 23.3386 37.7188 23.1764 37.5201L12.7195 24.7105C12.5323 24.4811 12.2546 24.3492 11.9589 24.3321C8.18783 24.1149 1.82966 21.764 2.55646 13.7764C2.60092 13.2879 2.31341 12.8223 1.84561 12.6746L0.548113 12.2648C0.23243 12.1652 -0.0281936 11.9094 0.0121912 11.5808Z" fill="white"/>
<path d="M10.7993 30.1312C11.9458 30.3235 12.7933 30.3638 13.4048 30.3224C14.1122 30.2746 15.2747 30.4313 15.7438 30.9629L15.9117 31.1532C16.3623 31.6639 16.1575 32.4027 15.488 32.5275C14.8439 32.6476 13.9686 32.7745 12.8368 32.8774C11.2407 33.0225 10.3141 32.1392 9.82865 31.2052C9.50855 30.5893 10.1148 30.0163 10.7993 30.1312Z" fill="white"/>
</svg>
