<svg width="70" height="56" viewBox="0 0 70 56" fill="none" xmlns="http://www.w3.org/2000/svg">
<g clip-path="url(#clip0_36_4596)">
<path d="M9.40538 34.0847C10.0563 33.6517 10.1123 32.8621 9.73458 32.0722C7.9828 28.5644 7.56942 24.4953 8.72697 20.4584C9.8886 16.4073 12.3955 13.1756 15.7399 11.1291C16.4788 10.6594 16.8497 9.96012 16.5231 9.26227C16.176 8.52758 15.3028 8.27718 14.5128 8.76328C10.5134 11.1487 7.52323 14.9854 6.16455 19.7237C4.80995 24.4477 5.30857 29.3002 7.44021 33.4282C7.8526 34.2592 8.72174 34.5238 9.40538 34.0847ZM52.9664 46.5756C53.2991 47.3062 54.1764 47.5424 54.9808 47.0603C58.9618 44.685 61.956 40.8341 63.3106 36.11C64.6693 31.3718 64.1666 26.5335 62.0534 22.3953C61.6267 21.5603 60.7534 21.3099 60.0841 21.7532C59.423 22.1678 59.367 22.9573 59.7447 23.7473C61.5107 27.2592 61.9098 31.3242 60.7482 35.3753C59.5906 39.4121 57.0981 42.648 53.7394 44.6904C53.0004 45.1601 52.6296 45.8594 52.9664 46.5756Z" fill="white" fill-opacity="0.85"/>
<path d="M16.0102 30.3395C16.6754 29.9106 16.6659 29.1332 16.3537 28.3311C15.5351 26.5937 15.4818 24.5643 16.0565 22.5602C16.6312 20.5561 17.7558 18.8492 19.3708 17.8095C20.0606 17.2947 20.4806 16.6405 20.1396 15.9385C19.7783 15.1997 18.8519 14.9186 18.0925 15.4599C15.9064 16.9245 14.2616 19.1486 13.4941 21.8254C12.7265 24.5024 12.9468 27.2458 14.0246 29.6462C14.3818 30.5077 15.3123 30.7745 16.0102 30.3395ZM49.3359 39.8955C49.6972 40.6343 50.6278 40.9011 51.4015 40.3639C53.5732 38.8952 55.2281 36.6896 55.9957 34.0126C56.7632 31.3358 56.5327 28.574 55.4693 26.1776C55.0979 25.312 54.1632 25.0594 53.4653 25.4945C52.8184 25.9132 52.8137 26.6865 53.1259 27.4886C53.9444 29.2261 53.9937 31.2696 53.419 33.2737C52.8443 35.2779 51.7237 36.9706 50.1089 38.0102C49.419 38.525 49.0133 39.1833 49.3359 39.8955Z" fill="white" fill-opacity="0.85"/>
<path d="M22.6438 45.2397L35.828 49.0202C38.82 49.8781 41.2493 48.5917 42.0784 45.7L50.3906 16.7119C51.2198 13.8203 49.8414 11.442 46.8494 10.5841L33.6652 6.80355C30.6733 5.94566 28.2583 7.23615 27.4291 10.1278L19.1169 39.1159C18.2877 42.0076 19.652 44.3818 22.6438 45.2397ZM23.6852 42.7962C21.9388 42.2955 21.2771 41.1452 21.7574 39.4703L29.8561 11.2265C30.3364 9.55166 31.5071 8.92685 33.2535 9.42763L45.8223 13.0317C47.5544 13.5283 48.2161 14.6786 47.7358 16.3534L39.637 44.5972C39.1568 46.2721 37.9861 46.8969 36.254 46.4003L23.6852 42.7962ZM26.4862 42.1586L34.2165 44.3753C34.6602 44.5025 35.0798 44.2819 35.2111 43.8238C35.3425 43.3657 35.1035 42.9564 34.6598 42.8292L26.9296 40.6126C26.4858 40.4854 26.0663 40.7058 25.935 41.1639C25.8036 41.622 26.0425 42.0314 26.4862 42.1586ZM36.3317 14.1988L40.6978 15.4508C41.3563 15.6396 42.0195 15.272 42.2124 14.5992C42.3971 13.9551 42.0295 13.2919 41.371 13.1031L37.0049 11.8511C36.3321 11.6582 35.6689 12.0258 35.4842 12.6699C35.2913 13.3428 35.6589 14.0059 36.3317 14.1988Z" fill="white" fill-opacity="0.85"/>
</g>
<defs>
<clipPath id="clip0_36_4596">
<rect width="60" height="40.0148" fill="white" transform="translate(11.6772 0.498535) rotate(16)"/>
</clipPath>
</defs>
</svg>
